# xmcd
#
# Track frame offsets:
#	150
#	20237
#	36033
#	55024
#	74875
#	91014
#	111461
#	132318
#	147119
#	167798
#	184215
#	205264
#	219313
#	239858
#	254851
#
# Disc length: 3594
#
# Revision: 2
# Processed by: cddbd v1.5.1PL0 Copyright (c) Steve Scherf et al.
# Submitted via: audiograbber 1.82.02
# Normalized: r1:DSETVAR1,TDELIM( - )
#
DISCID=f10e080f
DTITLE=Various Artist - Christian Power Gold Winners 3
DYEAR=1900
DGENRE=Blues
TTITLE0=Michael W Smith - Cry For Love
TTITLE1=Avalon - In Not Of
TTITLE2=Amy Grant - Thats what Love is For
TTITLE3=4 Him - Real Thing
TTITLE4=Newsboys - Love, Liberty, Disco
TTITLE5=Jaci Velesquez - God So Loved
TTITLE6=Steven Curtis Chapman - More to This Life
TTITLE7=Rich Mullins - Boy like Me, Man Like You
TTITLE8=Steve Aprana - Its Inevitable
TTITLE9=Margaret Becker - Streets of Innocence
TTITLE10=Bryan Duncan - I Love You With My Life
TTITLE11=Mary Mary - Shackies (Praise You)
TTITLE12=D C Talk - In The Light
TTITLE13=Claire Hazzard - Whatever it Takes
TTITLE14=Chris Rice - Smell the Color 9
EXTD=
EXTT0=
EXTT1=
EXTT2=
EXTT3=
EXTT4=
EXTT5=
EXTT6=
EXTT7=
EXTT8=
EXTT9=
EXTT10=
EXTT11=
EXTT12=
EXTT13=
EXTT14=
PLAYORDER=
